<!--?xml version="1.0" standalone="no"?-->
              <svg id="sw-js-blob-svg" viewBox="0 0 100 100" xmlns="http://www.w3.org/2000/svg" version="1.1">
                    <defs> 
                        <linearGradient id="sw-gradient" x1="0" x2="1" y1="1" y2="0">
                            <stop id="stop1" stop-color="rgba(255, 0, 102, 1)" offset="0%"></stop>
                            <stop id="stop2" stop-color="rgba(60, 49, 221, 1)" offset="100%"></stop>
                        </linearGradient>
                    </defs>
                <path fill="url(#sw-gradient)" d="M25.8,-34C33,-30.2,38.2,-22.2,41.4,-13.3C44.5,-4.4,45.5,5.4,42,12.9C38.5,20.4,30.5,25.6,22.7,28.7C15,31.8,7.5,32.8,0,32.7C-7.4,32.7,-14.9,31.7,-22.5,28.6C-30.2,25.4,-38.2,20.2,-39.8,13.4C-41.4,6.5,-36.6,-1.9,-33.5,-10.7C-30.4,-19.5,-28.9,-28.7,-23.6,-33.1C-18.3,-37.5,-9.2,-37.3,0.1,-37.3C9.3,-37.4,18.5,-37.8,25.8,-34Z" width="100%" height="100%" transform="translate(50 50)" stroke-width="0" style="transition: all 0.3s ease 0s;" stroke="url(#sw-gradient)"></path>
              </svg>