<!--?xml version="1.0" standalone="no"?-->
              <svg id="sw-js-blob-svg" viewBox="0 0 100 100" xmlns="http://www.w3.org/2000/svg" version="1.1">
                    <defs> 
                        <linearGradient id="sw-gradient" x1="0" x2="1" y1="1" y2="0">
                            <stop id="stop1" stop-color="rgba(255, 0, 102, 1)" offset="0%"></stop>
                            <stop id="stop2" stop-color="rgba(60, 49, 221, 1)" offset="100%"></stop>
                        </linearGradient>
                    </defs>
                <path fill="url(#sw-gradient)" d="M24.4,-34C31.7,-28.4,37.5,-21.2,40,-13.1C42.4,-5,41.5,4.1,38.6,12.5C35.8,20.9,31.2,28.7,24.4,32.3C17.6,35.8,8.8,35.3,0.4,34.7C-8,34.2,-16,33.6,-22.7,30C-29.4,26.4,-34.8,19.7,-38.7,11.6C-42.6,3.5,-45,-5.9,-42.3,-13.5C-39.5,-21.1,-31.5,-26.7,-23.6,-32.1C-15.7,-37.5,-7.8,-42.6,0.4,-43.1C8.6,-43.6,17.2,-39.6,24.4,-34Z" width="100%" height="100%" transform="translate(50 50)" stroke-width="0" style="transition: all 0.3s ease 0s;" stroke="url(#sw-gradient)"></path>
              </svg>